<?xml version="1.0" encoding="utf-8"?>
<!-- Generator: Adobe Illustrator 23.0.2, SVG Export Plug-In . SVG Version: 6.00 Build 0)  -->
<svg version="1.1" id="Layer_1" xmlns="http://www.w3.org/2000/svg" xmlns:xlink="http://www.w3.org/1999/xlink" x="0px" y="0px"
	 viewBox="0 0 200 200" style="enable-background:new 0 0 200 200;" xml:space="preserve">
<style type="text/css">
	.st0{fill:url(#SVGID_1_);}
	.st1{fill:#F5F9FF;}
</style>
<g>
	<g>
		<linearGradient id="SVGID_1_" gradientUnits="userSpaceOnUse" x1="101.5793" y1="178.4362" x2="98.2435" y2="12.7606">
			<stop  offset="0" style="stop-color:#53B448"/>
			<stop  offset="1" style="stop-color:#82C24A"/>
		</linearGradient>
		<path class="st0" d="M160.01,193.97H39.99C21.22,193.97,6,178.75,6,159.98V40.02C6,21.25,21.22,6.03,39.99,6.03h120.02
			c18.77,0,33.99,15.22,33.99,33.99v119.96C194,178.75,178.78,193.97,160.01,193.97z"/>
		<g>
			<g>
				<path class="st1" d="M117.81,119.6c-1.35-4.25-2.91-8.44-3.54-12.89c-0.76-5.32,0.57-9.94,4.47-13.76
					c2.75-2.69,6.1-4.21,9.76-5.18c4.05-1.07,8.23-1.53,12.32-2.41c4.31-0.93,8.47-2.27,11.99-5.04
					c7.01-5.52,10.57-12.94,11.08-21.7c0.59-10.14-3-18.73-10.74-25.42c-6.05-5.24-13.14-7.78-21.16-7.52
					c-8.6,0.28-15.88,3.6-21.81,9.85c-4.49,4.73-6.89,10.35-7.1,16.89c-0.13,3.93,0.39,7.81,0.82,11.7
					c0.39,3.59,0.77,7.19,0.09,10.78c-1.1,5.76-3.95,10.25-9.54,12.61c-2.65,1.12-5.48,1.41-8.31,1.53
					c-2.65,0.11-5.3,0.02-7.61-0.12c-5.23-0.1-10.12-0.18-14.96,0.7c-2.74,0.5-5.42,1.22-7.92,2.44
					c-6.29,3.07-11.09,7.81-14.85,13.64c-4.07,6.3-6.46,13.2-7.07,20.65c-0.28,3.46-0.07,6.96,0.48,10.42
					c1.39,8.69,5.07,16.32,10.84,22.91c1.92,2.19,4.06,4.19,6.5,5.85c2.05,1.4,4.11,2.8,6.3,3.96c2.49,1.32,5.13,2.34,7.87,3.11
					c2.91,0.81,5.83,1.38,8.84,1.58c3.05,0.2,6.1,0.21,9.13-0.22c13.33-1.88,23.86-8.33,31.46-19.46c4.88-7.13,6.75-15,5.49-23.58
					C120.07,127.07,119,123.32,117.81,119.6z"/>
			</g>
		</g>
	</g>
</g>
</svg>
